<svg xmlns="http://www.w3.org/2000/svg" viewBox="0 0 512 512" fill="none">
  <defs>
    <linearGradient id="soft" x1="170" y1="120" x2="350" y2="320" gradientUnits="userSpaceOnUse">
      <stop stop-color="#FFFFFF" stop-opacity="0.96"/>
      <stop offset="1" stop-color="#EEE7FB" stop-opacity="0.92"/>
    </linearGradient>
    <linearGradient id="trufa" x1="170" y1="210" x2="350" y2="320" gradientUnits="userSpaceOnUse">
      <stop stop-color="#3A0B5A" stop-opacity="0.95"/>
      <stop offset="1" stop-color="#7B2FBE" stop-opacity="0.55"/>
    </linearGradient>
    <filter id="s" x="-20%" y="-20%" width="140%" height="140%">
      <feDropShadow dx="0" dy="12" stdDeviation="10" flood-color="#000" flood-opacity="0.18"/>
    </filter>
  </defs>
  <g filter="url(#s)">
    <path d="M176 200c0-56 36-102 80-102s80 46 80 102c0 25-9 48-24 66H200c-15-18-24-41-24-66Z" fill="url(#soft)"/>
    <path d="M196 246h120c0 44-60 56-60 56s-60-12-60-56Z" fill="#FFED00" opacity="0.85"/>
    <path d="M188 236c22 10 44 14 68 14 24 0 46-4 68-14v30c0 18-10 34-26 42l-30 14c-8 4-16 4-24 0l-30-14c-16-8-26-24-26-42v-30Z" fill="url(#soft)"/>
    <path d="M188 266c20 16 42 24 68 24 26 0 48-8 68-24v24c0 18-10 34-26 42l-30 14c-8 4-16 4-24 0l-30-14c-16-8-26-24-26-42v-24Z" fill="url(#trufa)"/>
    <path d="M232 330 180 440c-5 9 1 20 11 22l130 26c6 1 12-2 15-8l48-140c3-10-5-20-15-20H247c-6 0-12 3-15 10Z" fill="#F6C77A"/>
    <path d="M176 200c0-56 36-102 80-102s80 46 80 102c0 25-9 48-24 66H200c-15-18-24-41-24-66Z" stroke="#7B2FBE" stroke-width="10"/>
    <path d="M232 330 180 440c-5 9 1 20 11 22l130 26c6 1 12-2 15-8l48-140c3-10-5-20-15-20H247c-6 0-12 3-15 10Z" stroke="#7B2FBE" stroke-width="10"/>
    <path d="M215 372h176" stroke="#7B2FBE" stroke-opacity="0.22" stroke-width="10" stroke-linecap="round"/>
    <path d="M200 410h186" stroke="#7B2FBE" stroke-opacity="0.18" stroke-width="10" stroke-linecap="round"/>
    <ellipse cx="260" cy="498" rx="130" ry="16" fill="#000" opacity="0.12"/>
  </g>
</svg>
