<svg xmlns="http://www.w3.org/2000/svg" viewBox="0 0 512 512" fill="none">
  <defs>
    <linearGradient id="cup" x1="190" y1="120" x2="360" y2="460" gradientUnits="userSpaceOnUse">
      <stop stop-color="#FFFFFF" stop-opacity="0.95"/>
      <stop offset="1" stop-color="#EDE7F7" stop-opacity="0.95"/>
    </linearGradient>
    <linearGradient id="drip" x1="190" y1="220" x2="360" y2="320" gradientUnits="userSpaceOnUse">
      <stop stop-color="#FFED00" stop-opacity="0.95"/>
      <stop offset="1" stop-color="#FFED00" stop-opacity="0.25"/>
    </linearGradient>
    <filter id="s" x="-20%" y="-20%" width="140%" height="140%">
      <feDropShadow dx="0" dy="12" stdDeviation="10" flood-color="#000" flood-opacity="0.18"/>
    </filter>
  </defs>
  <g filter="url(#s)">
    <path d="M192 150c0-40 29-72 64-72s64 32 64 72c0 20-7 38-18 52H210c-11-14-18-32-18-52Z" fill="url(#cup)"/>
    <path d="M210 202h132c18 22 28 50 28 81v118c0 26-18 48-42 52l-56 10c-10 2-20 2-30 0l-56-10c-24-4-42-26-42-52V283c0-31 10-59 28-81Z" fill="url(#cup)"/>
    <path d="M188 260c18 22 46 34 68 34h0c22 0 50-12 68-34 10-12 22-18 36-18h8v38h-8c-14 0-26 6-36 18-18 22-46 34-68 34h0c-22 0-50-12-68-34-10-12-22-18-36-18h-8v-38h8c14 0 26 6 36 18Z" fill="url(#drip)"/>
    <path d="M190 206h132" stroke="#7B2FBE" stroke-width="10" stroke-linecap="round"/>
    <path d="M184 250h144" stroke="#7B2FBE" stroke-opacity="0.28" stroke-width="8" stroke-linecap="round"/>
    <path d="M210 202h132c18 22 28 50 28 81v118c0 26-18 48-42 52l-56 10c-10 2-20 2-30 0l-56-10c-24-4-42-26-42-52V283c0-31 10-59 28-81Z" stroke="#7B2FBE" stroke-width="10"/>
    <ellipse cx="260" cy="470" rx="120" ry="18" fill="#000" opacity="0.12"/>
  </g>
</svg>
