<svg xmlns="http://www.w3.org/2000/svg" viewBox="0 0 512 512" fill="none">
  <defs>
    <linearGradient id="g" x1="120" y1="80" x2="380" y2="440" gradientUnits="userSpaceOnUse">
      <stop stop-color="#FFED00" stop-opacity="0.9"/>
      <stop offset="1" stop-color="#7B2FBE" stop-opacity="0.15"/>
    </linearGradient>
    <filter id="s" x="-20%" y="-20%" width="140%" height="140%">
      <feDropShadow dx="0" dy="12" stdDeviation="10" flood-color="#000" flood-opacity="0.18"/>
    </filter>
  </defs>
  <g filter="url(#s)">
    <path d="M176 210c0-56 36-102 80-102s80 46 80 102c0 25-9 48-24 66H200c-15-18-24-41-24-66Z" fill="#FFF" opacity="0.95"/>
    <path d="M200 276h192c-7 16-18 30-32 40-26 18-64 28-64 28s-38-10-64-28c-14-10-25-24-32-40Z" fill="url(#g)" />
    <path d="M232 340 180 440c-5 9 1 20 11 22l130 26c6 1 12-2 15-8l48-140c3-10-5-20-15-20H247c-6 0-12 3-15 10Z" fill="#F6C77A"/>
    <path d="M235 348h150" stroke="#7B2FBE" stroke-opacity="0.28" stroke-width="10" stroke-linecap="round"/>
    <path d="M224 388h158" stroke="#7B2FBE" stroke-opacity="0.22" stroke-width="10" stroke-linecap="round"/>
    <path d="M206 430h170" stroke="#7B2FBE" stroke-opacity="0.18" stroke-width="10" stroke-linecap="round"/>
    <path d="M176 210c0-56 36-102 80-102s80 46 80 102c0 25-9 48-24 66H200c-15-18-24-41-24-66Z" stroke="#7B2FBE" stroke-width="10"/>
    <path d="M232 340 180 440c-5 9 1 20 11 22l130 26c6 1 12-2 15-8l48-140c3-10-5-20-15-20H247c-6 0-12 3-15 10Z" stroke="#7B2FBE" stroke-width="10"/>
    <circle cx="314" cy="156" r="10" fill="#FFED00"/>
    <circle cx="344" cy="186" r="7" fill="#FFED00" opacity="0.9"/>
    <circle cx="290" cy="186" r="6" fill="#FFED00" opacity="0.85"/>
  </g>
</svg>
