<svg xmlns="http://www.w3.org/2000/svg" viewBox="0 0 512 512" fill="none">
  <defs>
    <linearGradient id="bowl" x1="120" y1="240" x2="420" y2="460" gradientUnits="userSpaceOnUse">
      <stop stop-color="#FFFFFF" stop-opacity="0.92"/>
      <stop offset="1" stop-color="#E7E0FA" stop-opacity="0.88"/>
    </linearGradient>
    <linearGradient id="cream" x1="150" y1="220" x2="360" y2="340" gradientUnits="userSpaceOnUse">
      <stop stop-color="#FFF780"/>
      <stop offset="1" stop-color="#FFED00" stop-opacity="0.55"/>
    </linearGradient>
    <filter id="s" x="-20%" y="-20%" width="140%" height="140%">
      <feDropShadow dx="0" dy="12" stdDeviation="10" flood-color="#000" flood-opacity="0.18"/>
    </filter>
  </defs>
  <g filter="url(#s)">
    <path d="M152 310c0-40 47-72 104-72s104 32 104 72-47 92-104 92-104-52-104-92Z" fill="url(#bowl)"/>
    <path d="M168 308c0-26 39-48 88-48s88 22 88 48-39 70-88 70-88-44-88-70Z" fill="url(#cream)"/>
    <path d="M356 250c28 6 48 20 48 38 0 24-35 44-78 44" stroke="#7B2FBE" stroke-width="10" stroke-linecap="round"/>
    <path d="M152 310c0-40 47-72 104-72s104 32 104 72-47 92-104 92-104-52-104-92Z" stroke="#7B2FBE" stroke-width="10"/>
    <path d="M324 318l76-34c12-6 26 6 21 18l-20 52c-4 10-16 14-25 8l-52-32Z" fill="#D9D1F3" opacity="0.9" stroke="#7B2FBE" stroke-width="10" stroke-linejoin="round"/>
    <circle cx="210" cy="270" r="8" fill="#7B2FBE" opacity="0.25"/>
    <circle cx="252" cy="286" r="6" fill="#7B2FBE" opacity="0.22"/>
    <circle cx="232" cy="304" r="5" fill="#7B2FBE" opacity="0.2"/>
    <ellipse cx="260" cy="430" rx="150" ry="18" fill="#000" opacity="0.12"/>
  </g>
</svg>
