<svg xmlns="http://www.w3.org/2000/svg" viewBox="0 0 512 512" fill="none">
  <defs>
    <linearGradient id="glass" x1="160" y1="160" x2="360" y2="460" gradientUnits="userSpaceOnUse">
      <stop stop-color="#FFFFFF" stop-opacity="0.85"/>
      <stop offset="1" stop-color="#D9D1F3" stop-opacity="0.65"/>
    </linearGradient>
    <linearGradient id="choco" x1="170" y1="260" x2="360" y2="360" gradientUnits="userSpaceOnUse">
      <stop stop-color="#3A0B5A" stop-opacity="0.92"/>
      <stop offset="1" stop-color="#7B2FBE" stop-opacity="0.55"/>
    </linearGradient>
    <filter id="s" x="-20%" y="-20%" width="140%" height="140%">
      <feDropShadow dx="0" dy="12" stdDeviation="10" flood-color="#000" flood-opacity="0.18"/>
    </filter>
  </defs>
  <g filter="url(#s)">
    <path d="M176 226c0-65 36-118 80-118s80 53 80 118c0 33-9 63-24 86H200c-15-23-24-53-24-86Z" fill="#FFF" opacity="0.95"/>
    <path d="M180 310h152l40 142c4 14-6 28-21 29l-78 6c-11 1-23 1-34 0l-78-6c-15-1-25-15-21-29l40-142Z" fill="url(#glass)"/>
    <path d="M196 330h120c10 0 18 8 18 18v34c0 10-8 18-18 18H196c-10 0-18-8-18-18v-34c0-10 8-18 18-18Z" fill="url(#choco)"/>
    <path d="M210 180c8-18 26-30 46-30 20 0 38 12 46 30" stroke="#FFED00" stroke-width="14" stroke-linecap="round"/>
    <path d="M176 226c0-65 36-118 80-118s80 53 80 118c0 33-9 63-24 86H200c-15-23-24-53-24-86Z" stroke="#7B2FBE" stroke-width="10"/>
    <path d="M180 310h152l40 142c4 14-6 28-21 29l-78 6c-11 1-23 1-34 0l-78-6c-15-1-25-15-21-29l40-142Z" stroke="#7B2FBE" stroke-width="10"/>
    <circle cx="314" cy="148" r="10" fill="#FFED00"/>
    <circle cx="290" cy="130" r="7" fill="#FFED00" opacity="0.9"/>
    <ellipse cx="260" cy="494" rx="130" ry="16" fill="#000" opacity="0.12"/>
  </g>
</svg>
