<svg xmlns="http://www.w3.org/2000/svg" viewBox="0 0 512 512" fill="none">
  <defs>
    <linearGradient id="plate" x1="120" y1="280" x2="420" y2="440" gradientUnits="userSpaceOnUse">
      <stop stop-color="#FFFFFF" stop-opacity="0.92"/>
      <stop offset="1" stop-color="#E7E0FA" stop-opacity="0.88"/>
    </linearGradient>
    <filter id="s" x="-20%" y="-20%" width="140%" height="140%">
      <feDropShadow dx="0" dy="12" stdDeviation="10" flood-color="#000" flood-opacity="0.18"/>
    </filter>
  </defs>
  <g filter="url(#s)">
    <path d="M148 328c0-44 48-80 108-80s108 36 108 80-48 92-108 92-108-48-108-92Z" fill="url(#plate)" stroke="#7B2FBE" stroke-width="10"/>
    <path d="M196 220c12-28 34-46 60-46 26 0 48 18 60 46" stroke="#FFED00" stroke-width="14" stroke-linecap="round"/>
    <path d="M206 294c10-12 28-20 50-20s40 8 50 20" stroke="#7B2FBE" stroke-opacity="0.55" stroke-width="10" stroke-linecap="round"/>
    <path d="M224 332h64" stroke="#7B2FBE" stroke-opacity="0.45" stroke-width="10" stroke-linecap="round"/>
    <path d="M160 246l192 192" stroke="#FFED00" stroke-width="18" stroke-linecap="round"/>
    <circle cx="352" cy="246" r="22" fill="#FFED00" opacity="0.9"/>
    <circle cx="352" cy="246" r="14" fill="#7B2FBE" opacity="0.35"/>
    <ellipse cx="260" cy="468" rx="150" ry="18" fill="#000" opacity="0.12"/>
  </g>
</svg>
